<svg xmlns="http://www.w3.org/2000/svg" width="300" height="300" viewBox="0 0 300 300"><defs><radialGradient id="vig" cx="0.5" cy="0.46" r="0.72"><stop offset="0.45" stop-color="#000" stop-opacity="0"/><stop offset="1" stop-color="#000" stop-opacity="0.82"/></radialGradient><filter id="grain" x="0" y="0" width="100%" height="100%"><feTurbulence type="fractalNoise" baseFrequency="0.9" numOctaves="2" stitchTiles="stitch"/><feColorMatrix values="0 0 0 0 0  0 0 0 0 0  0 0 0 0 0  1.6 0 0 0 -0.62"/></filter><filter id="b3" x="-50%" y="-50%" width="200%" height="200%"><feGaussianBlur stdDeviation="3"/></filter><linearGradient id="night" x1="0" y1="0" x2="0" y2="1"><stop offset="0" stop-color="#081028"/><stop offset="0.6" stop-color="#18264a"/><stop offset="1" stop-color="#26365a"/></linearGradient><radialGradient id="warm" cx="0.5" cy="0.5" r="0.5"><stop offset="0" stop-color="#ffcf7a" stop-opacity="0.85"/><stop offset="0.35" stop-color="#ff9a3a" stop-opacity="0.32"/><stop offset="1" stop-color="#ff7a1a" stop-opacity="0"/></radialGradient><linearGradient id="gold" x1="0" y1="0" x2="0" y2="1"><stop offset="0" stop-color="#fff1b8"/><stop offset="0.45" stop-color="#d8a93c"/><stop offset="1" stop-color="#6e4a12"/></linearGradient><linearGradient id="sideL" x1="0" y1="0" x2="1" y2="0"><stop offset="0" stop-color="#000" stop-opacity="0.55"/><stop offset="1" stop-color="#000" stop-opacity="0.1"/></linearGradient><linearGradient id="sideR" x1="0" y1="0" x2="1" y2="0"><stop offset="0" stop-color="#000" stop-opacity="0.1"/><stop offset="1" stop-color="#000" stop-opacity="0.55"/></linearGradient><linearGradient id="ceil" x1="0" y1="0" x2="0" y2="1"><stop offset="0" stop-color="#000" stop-opacity="0.2"/><stop offset="1" stop-color="#000" stop-opacity="0.7"/></linearGradient><pattern id="dmkB" width="22" height="28" patternUnits="userSpaceOnUse"><rect width="22" height="28" fill="#3a1018"/><path d="M11 3c4 4 7 8 3 12 4-1 5 3 3 5-3 2-5 0-6-2-1 2-3 4-6 2-2-2-1-6 3-5-4-4-1-8 3-12z" fill="#561a26"/></pattern>
    <radialGradient id="fire" cx="0.5" cy="0.8" r="0.7"><stop offset="0" stop-color="#fff2b0"/><stop offset="0.4" stop-color="#ffb040"/><stop offset="1" stop-color="#c8401a" stop-opacity="0"/></radialGradient>
    <pattern id="rugP" width="16" height="16" patternUnits="userSpaceOnUse"><rect width="16" height="16" fill="#5a1422"/><path d="M8 2l6 6-6 6-6-6z" fill="#8a2a34"/><circle cx="8" cy="8" r="2" fill="#d9b45a"/></pattern></defs>
    
    <rect width="300" height="300" fill="#0a0708"/>
    <path d="M0 0L70 58L70 186L0 300Z" fill="#2e0c14"/>
    <path d="M300 0L230 58L230 186L300 300Z" fill="#280a12"/>
    <rect x="70" y="58" width="160" height="128" fill="url(#dmkB)"/>
    <path d="M0 300L70 186L230 186L300 300Z" fill="#24140c"/>
    <path d="M0 0L70 58L70 186L0 300Z" fill="url(#sideL)"/>
    <path d="M300 0L230 58L230 186L300 300Z" fill="url(#sideR)"/>
    <path d="M0 0L300 0L230 58L70 58Z" fill="url(#ceil)"/>
    <path d="M70 186L0 300" stroke="#140a04" stroke-width="1.2"/><path d="M86 186L30 300" stroke="#140a04" stroke-width="1.2"/><path d="M102 186L60 300" stroke="#140a04" stroke-width="1.2"/><path d="M118 186L90 300" stroke="#140a04" stroke-width="1.2"/><path d="M134 186L120 300" stroke="#140a04" stroke-width="1.2"/><path d="M150 186L150 300" stroke="#140a04" stroke-width="1.2"/><path d="M166 186L180 300" stroke="#140a04" stroke-width="1.2"/><path d="M182 186L210 300" stroke="#140a04" stroke-width="1.2"/><path d="M198 186L240 300" stroke="#140a04" stroke-width="1.2"/><path d="M214 186L270 300" stroke="#140a04" stroke-width="1.2"/><path d="M230 186L300 300" stroke="#140a04" stroke-width="1.2"/><path d="M70 186L86 186" stroke="#140a04" stroke-width="1"/><path d="M65.1 193.9L82.1 193.9" stroke="#140a04" stroke-width="1"/><path d="M62.4 198.4L79.9 198.4" stroke="#140a04" stroke-width="1"/><path d="M73.5 211.5L92.6 211.5" stroke="#140a04" stroke-width="1"/><path d="M85.6 186.8L101.7 186.8" stroke="#140a04" stroke-width="1"/><path d="M40 279.7L67.5 279.7" stroke="#140a04" stroke-width="1"/><path d="M79.3 247.5L102.9 247.5" stroke="#140a04" stroke-width="1"/><path d="M94.2 207L112.8 207" stroke="#140a04" stroke-width="1"/><path d="M93 210.4L112 210.4" stroke="#140a04" stroke-width="1"/><path d="M91 295.8L120.5 295.8" stroke="#140a04" stroke-width="1"/><path d="M105.7 235.9L127.9 235.9" stroke="#140a04" stroke-width="1"/><path d="M90.2 299.3L120.1 299.3" stroke="#140a04" stroke-width="1"/><path d="M120.3 297.7L150 297.7" stroke="#140a04" stroke-width="1"/><path d="M125.8 252.7L150 252.7" stroke="#140a04" stroke-width="1"/><path d="M133.1 193L150 193" stroke="#140a04" stroke-width="1"/><path d="M150 269.5L176.3 269.5" stroke="#140a04" stroke-width="1"/><path d="M150 254.9L174.5 254.9" stroke="#140a04" stroke-width="1"/><path d="M150 243.8L173.1 243.8" stroke="#140a04" stroke-width="1"/><path d="M172 235.1L194.1 235.1" stroke="#140a04" stroke-width="1"/><path d="M167.2 195.4L184.3 195.4" stroke="#140a04" stroke-width="1"/><path d="M167.2 195.4L184.3 195.4" stroke="#140a04" stroke-width="1"/><path d="M205.8 282.8L233.6 282.8" stroke="#140a04" stroke-width="1"/><path d="M189.2 215.3L208.8 215.3" stroke="#140a04" stroke-width="1"/><path d="M197.8 250.3L221.7 250.3" stroke="#140a04" stroke-width="1"/><path d="M201.7 196.1L219 196.1" stroke="#140a04" stroke-width="1"/><path d="M218.4 241.3L241.2 241.3" stroke="#140a04" stroke-width="1"/><path d="M199.6 190.4L216.1 190.4" stroke="#140a04" stroke-width="1"/><path d="M228.4 215.3L248 215.3" stroke="#140a04" stroke-width="1"/><path d="M214.6 187.3L230.8 187.3" stroke="#140a04" stroke-width="1"/><path d="M269.4 298.8L299.2 298.8" stroke="#140a04" stroke-width="1"/>
    <rect x="70" y="152" width="160" height="34" fill="#2a160c"/><path d="M0 220.3L70 152L70 186L0 300Z" fill="#2a160c"/><path d="M300 220.3L230 152L230 186L300 300Z" fill="#2a160c"/><path d="M70 152H230M0 220.3L70 152M300 220.3L230 152" stroke="#c9a23a" stroke-width="1.6" opacity=".7"/><rect x="86.7" y="159" width="20" height="20" fill="none" stroke="#000" stroke-opacity=".35" stroke-width="1.5"/><rect x="113.3" y="159" width="20" height="20" fill="none" stroke="#000" stroke-opacity=".35" stroke-width="1.5"/><rect x="140" y="159" width="20" height="20" fill="none" stroke="#000" stroke-opacity=".35" stroke-width="1.5"/><rect x="166.7" y="159" width="20" height="20" fill="none" stroke="#000" stroke-opacity=".35" stroke-width="1.5"/><rect x="193.3" y="159" width="20" height="20" fill="none" stroke="#000" stroke-opacity=".35" stroke-width="1.5"/><path d="M70 186L230 186M0 300L70 186M300 300L230 186M70 58L70 186M230 58L230 186" stroke="#140a04" stroke-width="3" fill="none"/><path d="M0 0L70 58L230 58L300 0" stroke="#c9a23a" stroke-width="2" fill="none" opacity=".45"/>
    <circle cx="150" cy="170" r="110" fill="url(#warm)" opacity="0.55"/>
    <path d="M104 106H196V186H104Z" fill="#6a6258"/><path d="M98 100H202V110H98Z" fill="#3a2414"/>
    <path d="M122 132H178V186H122Z" fill="#0a0604"/>
    <path d="M122 132Q150 118 178 132" fill="#0a0604"/>
    <path d="M128 186C124 170 136 162 140 150C144 166 150 160 150 146C158 160 166 164 162 176C170 170 172 176 172 186Z" fill="url(#fire)"/>
    <path d="M138 186c0-10 6-14 8-22 4 10 10 12 8 22z" fill="#fff2b0"/>
    <path d="M126 184h48" stroke="#3a1a0a" stroke-width="5"/>
    <circle cx="110" cy="90" r="12.8" fill="url(#warm)" opacity="0.8"/><path d="M110 84.4c2.4 3.2 3.2 4.8 2 6.8c-1.2 1.2 -2.8 1.2 -4 0c-1.2 -2 -0.4 -3.6 2 -6.8z" fill="#ffd27a"/><circle cx="190" cy="90" r="12.8" fill="url(#warm)" opacity="0.8"/><path d="M190 84.4c2.4 3.2 3.2 4.8 2 6.8c-1.2 1.2 -2.8 1.2 -4 0c-1.2 -2 -0.4 -3.6 2 -6.8z" fill="#ffd27a"/><path d="M110 100V92M190 100V92" stroke="url(#gold)" stroke-width="3"/>
    <circle cx="150" cy="90" r="8" fill="url(#gold)"/><circle cx="150" cy="90" r="5.5" fill="#f4ecd8"/>
    <rect x="123" y="57" width="54" height="32" fill="url(#gold)"/><rect x="126" y="60" width="48" height="26" fill="#3a2a10"/><svg x="128" y="62" width="44" height="22" viewBox="0 0 100 120" preserveAspectRatio="xMidYMid slice"><rect width="100" height="120" fill="#1c2438"/><circle cx="70" cy="30" r="10" fill="#e8dcb0"/><path d="M0 80Q25 55 50 72T100 64V120H0Z" fill="#141a22"/><path d="M0 95Q30 80 60 92T100 88V120H0Z" fill="#0a0e14"/><path d="M20 90l4-18 4 18z" fill="#060808"/></svg>
    <path d="M80.6 232.3L219.4 232.3L268.5 297L31.5 297Z" fill="url(#rugP)" />
    <path d="M80.6 232.3L219.4 232.3L268.5 297L31.5 297Z" fill="none" stroke="#d9b45a" stroke-width="3"/>
    <path d="M6 300C4 250 12 222 36 216C60 212 76 222 80 240L84 300Z" fill="#7a1a22"/>
    <path d="M14 232C10 196 24 176 52 178C72 180 80 196 80 214L78 232Z" fill="#8e2430"/>
    <path d="M294 300C296 250 288 222 264 216C240 212 224 222 220 240L216 300Z" fill="#7a1a22"/>
    <path d="M286 232C290 196 276 176 248 178C228 180 220 196 220 214L222 232Z" fill="#8e2430"/>
    <ellipse cx="150" cy="262" rx="30" ry="8" fill="#2a1408"/><rect x="146" y="262" width="8" height="30" fill="#2a1408"/>
    <path d="M140 258V244L144 236H150L154 244V258Z" fill="#c8862a" opacity=".85"/><path d="M160 258V250H168V258Z" fill="#dfe8f0" opacity=".6"/><rect width="300" height="300" fill="url(#vig)"/><rect width="300" height="300" filter="url(#grain)" opacity=".12"/></svg>
