<svg xmlns="http://www.w3.org/2000/svg" width="300" height="380" viewBox="0 0 300 380"><defs>
    <radialGradient id="bg" cx="0.5" cy="0.36" r="0.8"><stop offset="0" stop-color="#4a5a2a"/><stop offset="0.6" stop-color="#1a220c"/><stop offset="1" stop-color="#060804"/></radialGradient>
    <linearGradient id="rimFade" x1="0" y1="0" x2="1" y2="0"><stop offset="0" stop-color="#000"/><stop offset="0.52" stop-color="#000"/><stop offset="1" stop-color="#fff"/></linearGradient>
    <mask id="rimMask" maskUnits="userSpaceOnUse" x="0" y="0" width="300" height="380"><rect width="300" height="380" fill="url(#rimFade)"/></mask>
    <radialGradient id="vig" cx="0.5" cy="0.42" r="0.78"><stop offset="0.5" stop-color="#000" stop-opacity="0"/><stop offset="1" stop-color="#000" stop-opacity="0.75"/></radialGradient>
    <radialGradient id="glow" cx="0.5" cy="0.5" r="0.5"><stop offset="0" stop-color="#d0e880" stop-opacity="0.4"/><stop offset="1" stop-color="#d0e880" stop-opacity="0"/></radialGradient>
    <filter id="grain" x="0" y="0" width="100%" height="100%"><feTurbulence type="fractalNoise" baseFrequency="0.9" numOctaves="2" stitchTiles="stitch"/><feColorMatrix values="0 0 0 0 0  0 0 0 0 0  0 0 0 0 0  1.6 0 0 0 -0.62"/></filter>
    <filter id="soft" x="-50%" y="-50%" width="200%" height="200%"><feGaussianBlur stdDeviation="1.6"/></filter>
    <linearGradient id="brass" x1="0" y1="0" x2="0" y2="1"><stop offset="0" stop-color="#fff1b8"/><stop offset="0.45" stop-color="#d8a93c"/><stop offset="1" stop-color="#6e4a12"/></linearGradient>
    <linearGradient id="steel" x1="0" y1="0" x2="0" y2="1"><stop offset="0" stop-color="#eef2f6"/><stop offset="0.5" stop-color="#9aa3ae"/><stop offset="1" stop-color="#4a5058"/></linearGradient>
    <linearGradient id="skin" x1="0" y1="0" x2="1" y2="0.2"><stop offset="0" stop-color="#e8c0a0"/><stop offset="0.5" stop-color="#cc9c7c"/><stop offset="1" stop-color="#8a5e46"/></linearGradient><linearGradient id="cloth" x1="0" y1="0" x2="1" y2="1"><stop offset="0" stop-color="#6a4a2a"/><stop offset="0.6" stop-color="#4a3018"/><stop offset="1" stop-color="#221408"/></linearGradient><linearGradient id="cloth2" x1="0" y1="0" x2="1" y2="1"><stop offset="0" stop-color="#4a3018"/><stop offset="1" stop-color="#221408"/></linearGradient><linearGradient id="shirt" x1="0" y1="0" x2="0" y2="1"><stop offset="0" stop-color="#e8dcc4"/><stop offset="1" stop-color="#a8987a"/></linearGradient><linearGradient id="hat" x1="0" y1="0" x2="0" y2="1"><stop offset="0" stop-color="#7a7064"/><stop offset="1" stop-color="#3a342c"/></linearGradient><linearGradient id="band" x1="0" y1="0" x2="0" y2="1"><stop offset="0" stop-color="#2a1a10"/><stop offset="1" stop-color="#0e0806"/></linearGradient><linearGradient id="hair" x1="0" y1="0" x2="0" y2="1"><stop offset="0" stop-color="#d8d4cc"/><stop offset="1" stop-color="#8a867e"/></linearGradient></defs><rect width="300" height="380" fill="url(#bg)"/>
    <ellipse cx="150" cy="170" rx="140" ry="165" fill="url(#glow)"/>
    <path d="M150 150L470 150L469.5 167.9ZM150 150L462 221.2L457.5 238.6ZM150 150L438.3 288.8L430.1 304.8ZM150 150L400.2 349.5L388.6 363.2ZM150 150L349.5 400.2L335.2 411ZM150 150L288.8 438.3L272.5 445.6ZM150 150L221.2 462L203.6 465.5ZM150 150L150 470L132.1 469.5ZM150 150L78.8 462L61.4 457.5ZM150 150L11.2 438.3L-4.8 430.1ZM150 150L-49.5 400.2L-63.2 388.6ZM150 150L-100.2 349.5L-111 335.2ZM150 150L-138.3 288.8L-145.6 272.5ZM150 150L-162 221.2L-165.5 203.6ZM150 150L-170 150L-169.5 132.1ZM150 150L-162 78.8L-157.5 61.4ZM150 150L-138.3 11.2L-130.1 -4.8ZM150 150L-100.2 -49.5L-88.6 -63.2ZM150 150L-49.5 -100.2L-35.2 -111ZM150 150L11.2 -138.3L27.5 -145.6ZM150 150L78.8 -162L96.4 -165.5ZM150 150L150 -170L167.9 -169.5ZM150 150L221.2 -162L238.6 -157.5ZM150 150L288.8 -138.3L304.8 -130.1ZM150 150L349.5 -100.2L363.2 -88.6ZM150 150L400.2 -49.5L411 -35.2ZM150 150L438.3 11.2L445.6 27.5ZM150 150L462 78.8L465.5 96.4Z" fill="#d0e880" opacity=".07"/>
    
    <path d="M40 380C44 322 84 292 150 288C216 292 256 322 260 380Z" fill="url(#shirt)"/>
        <path d="M150 300C146 330 148 356 146 380" stroke="#000" stroke-opacity=".15" stroke-width="2" fill="none"/>
        <path d="M58 380C60 340 78 310 114 296L146 380Z" fill="url(#cloth)"/><path d="M242 380C240 340 222 310 186 296L154 380Z" fill="url(#cloth)"/>
        <path d="M114 296L146 380M186 296L154 380" stroke="#000" stroke-opacity=".4" stroke-width="2.5"/>
        <circle cx="136" cy="336" r="3.2" fill="url(#brass)"/><circle cx="140" cy="360" r="3.2" fill="url(#brass)"/>
        <path d="M196 336h26" stroke="#000" stroke-opacity=".35" stroke-width="3"/>
    <path d="M126 230L174 230L178 278L122 278Z" fill="url(#skin)"/>
    <path d="M126 236C138 254 162 254 174 236L176 262C162 274 138 274 124 262Z" fill="#000" opacity=".28"/>
    
    
    
    
    <path d="M97 150C86 146 84 170 92 180C96 184 100 182 100 176Z" fill="url(#skin)"/><path d="M203 150C214 146 216 170 208 180C204 184 200 182 200 176Z" fill="#8a5e46"/>
    <path d="M150 72C116 72 102 102 102 146C102 190 110 222 126 240C136 250 144 254 150 254C156 254 164 250 174 240C190 222 198 190 198 146C198 102 184 72 150 72Z" fill="url(#skin)"/>
    <path d="M188 118C202 140 206 174 198 204C192 226 180 240 166 248C184 224 194 196 194 168C194 146 192 130 188 118Z" fill="#000" opacity=".2"/>
    
    <path d="M122 118C138 114 162 114 178 118M126 126C140 123 160 123 174 126" stroke="#000" stroke-opacity=".18" stroke-width="1.4" fill="none"/><path d="M106 160l-6 3M106 154l-7 0M194 160l6 3M194 154l7 0" stroke="#000" stroke-opacity=".22" stroke-width="1.3"/><path d="M124 200C118 212 120 226 126 234M176 200C182 212 180 226 174 234" stroke="#000" stroke-opacity=".2" stroke-width="2" fill="none"/>
    
    <clipPath id="eyeL"><path d="M113 153C121.4 144 134.6 144 143 153C134.6 159.3 121.4 159.3 113 153Z"/></clipPath>
    <path d="M113 153C121.4 144 134.6 144 143 153C134.6 159.3 121.4 159.3 113 153Z" fill="#efe6dc"/>
    <g clip-path="url(#eyeL)">
      <circle cx="129.2" cy="153.6" r="6.3" fill="#4a5a3a"/>
      <circle cx="129.2" cy="153.6" r="4.5" fill="none" stroke="#000" stroke-opacity=".22" stroke-width="1.9"/>
      <circle cx="129.2" cy="153.6" r="2.6" fill="#0a0707"/>
      <circle cx="127" cy="151.1" r="1.3" fill="#fff" fill-opacity=".92"/>
      <path d="M111 138L145 138L145 153C134.6 148.8 121.4 148.8 111 153Z" fill="#cc9c7c"/>
      <path d="M112 153C121.4 148.8 134.6 148.8 144 153" fill="none" stroke="#000" stroke-opacity=".28" stroke-width="5"/>
    </g>
    <path d="M112 153C121.4 148.8 134.6 148.8 144 153" fill="none" stroke="#1a1012" stroke-width="2.6" stroke-linecap="round"/>
    <path d="M115 149.3C122 141.3 134 141.3 142 148.6" fill="none" stroke="#7a4a3a" stroke-opacity=".5" stroke-width="1.3"/>
    <path d="M116 154.5C122 160.3 134 160.3 140 154.5" fill="none" stroke="#8e5e4c" stroke-opacity=".55" stroke-width="1.1"/>
    <path d="M117 162.4C123.5 169.3 134 169.3 141 161.8" fill="none" stroke="#6a3a2a" stroke-opacity=".5" stroke-width="1.5"/>
    
    
    <clipPath id="eyeR"><path d="M157 153C165.4 144 178.6 144 187 153C178.6 159.3 165.4 159.3 157 153Z"/></clipPath>
    <path d="M157 153C165.4 144 178.6 144 187 153C178.6 159.3 165.4 159.3 157 153Z" fill="#efe6dc"/>
    <g clip-path="url(#eyeR)">
      <circle cx="170.8" cy="153.6" r="6.3" fill="#4a5a3a"/>
      <circle cx="170.8" cy="153.6" r="4.5" fill="none" stroke="#000" stroke-opacity=".22" stroke-width="1.9"/>
      <circle cx="170.8" cy="153.6" r="2.6" fill="#0a0707"/>
      <circle cx="168.6" cy="151.1" r="1.3" fill="#fff" fill-opacity=".92"/>
      <path d="M155 138L189 138L189 153C178.6 148.8 165.4 148.8 155 153Z" fill="#8a5e46"/>
      <path d="M156 153C165.4 148.8 178.6 148.8 188 153" fill="none" stroke="#000" stroke-opacity=".28" stroke-width="5"/>
    </g>
    <path d="M156 153C165.4 148.8 178.6 148.8 188 153" fill="none" stroke="#1a1012" stroke-width="2.6" stroke-linecap="round"/>
    <path d="M159 149.3C166 141.3 178 141.3 186 148.6" fill="none" stroke="#7a4a3a" stroke-opacity=".5" stroke-width="1.3"/>
    <path d="M160 154.5C166 160.3 178 160.3 184 154.5" fill="none" stroke="#8e5e4c" stroke-opacity=".55" stroke-width="1.1"/>
    <path d="M161 162.4C167.5 169.3 178 169.3 185 161.8" fill="none" stroke="#6a3a2a" stroke-opacity=".5" stroke-width="1.5"/>
    
    <path d="M143 139Q126.5 132 110 137" fill="none" stroke="#8a867e" stroke-width="4.5" stroke-linecap="round"/>
   <path d="M143 139.675Q126.5 132.9 110 137" fill="none" stroke="#000" stroke-opacity=".18" stroke-width="2.25" stroke-linecap="round"/><path d="M157 139Q173.5 132 190 137" fill="none" stroke="#8a867e" stroke-width="4.5" stroke-linecap="round"/>
   <path d="M157 139.675Q173.5 132.9 190 137" fill="none" stroke="#000" stroke-opacity=".18" stroke-width="2.25" stroke-linecap="round"/>
    
    <path d="M153 161C156 179.5 159 188 161 195" fill="none" stroke="#8a5e46" stroke-width="2.6" stroke-opacity=".75" stroke-linecap="round"/>
    <path d="M141 196C137 202 145 204 148 200" fill="none" stroke="#8a5e46" stroke-width="2.2" stroke-linecap="round"/>
    <path d="M159 196C163 202 155 204 152 200" fill="none" stroke="#8a5e46" stroke-width="2.2" stroke-linecap="round"/>
    <path d="M138 199C144 207 156 207 162 199" fill="none" stroke="#000" stroke-opacity=".16" stroke-width="4"/>
    <ellipse cx="149" cy="192" rx="4" ry="3" fill="#fff" opacity=".22"/>
    
    <path d="M136 222C145.33333333333334 222 154.66666666666666 222 164 222" fill="none" stroke="#5a2a22" stroke-width="2.7" stroke-linecap="round"/>
    <path d="M141.6 227C147.2 232 152.8 232 158.4 227" fill="none" stroke="#8a5e46" stroke-opacity=".55" stroke-width="2.4" stroke-linecap="round"/>
    <path d="M143 235C147.76 237 152.24 237 157 235" fill="none" stroke="#000" stroke-opacity=".15" stroke-width="3"/>
    <path d="M104 176C104 232 126 270 150 274C174 270 196 232 196 176C188 208 172 228 150 230C128 228 112 208 104 176Z" fill="url(#hair)"/>
        <path d="M150 202C136 198 118 204 112 222C124 214 138 212 150 214C162 212 176 214 188 222C182 204 164 198 150 202Z" fill="url(#hair)"/>
        <path d="M124 236C132 252 142 262 150 264M176 236C168 252 158 262 150 264" stroke="#000" stroke-opacity=".25" stroke-width="2" fill="none"/>
    <circle cx="128" cy="153" r="15" fill="#dff3ff" fill-opacity=".1" stroke="url(#brass)" stroke-width="2.4"/><circle cx="172" cy="153" r="15" fill="#dff3ff" fill-opacity=".1" stroke="url(#brass)" stroke-width="2.4"/><path d="M143 151C146 147 154 147 157 151M113 150L100 146M187 150L200 146" stroke="#b08a3a" stroke-width="2" fill="none"/>
    <path d="M96 128C94 142 94 154 96 166L103 166C101 154 101 140 103 128ZM204 128C206 142 206 154 204 166L197 166C199 154 199 140 197 128Z" fill="url(#hair)"/>
    <g transform="rotate(4 150 110)">
        <path d="M96 122C92 84 114 54 150 54C186 54 208 84 204 122Z" fill="url(#hat)"/>
        <path d="M150 58C140 72 138 92 142 110M126 70C122 86 124 100 128 112M174 70C178 86 176 100 172 112" stroke="#000" stroke-opacity=".3" stroke-width="3" fill="none"/>
        <path d="M96 106C120 114 180 114 204 106L204 122C180 130 120 130 96 122Z" fill="url(#band)"/>
        <path d="M34 124C52 106 90 124 150 124C210 124 248 106 266 124C250 144 210 146 150 146C90 146 50 144 34 124Z" fill="url(#hat)"/>
        <path d="M44 126C70 136 230 136 256 126" stroke="#fff" stroke-opacity=".18" stroke-width="2" fill="none"/>
        <path d="M100 146C120 156 180 156 200 146" stroke="#000" stroke-opacity=".3" stroke-width="10" fill="none"/></g>
    <path d="M186 110C196 90 206 80 218 76" stroke="#4a7a3a" stroke-width="2.5" fill="none"/><path d="M196 94c6-8 14-8 16-4-6 2-10 4-16 4zM204 86c4-8 12-10 16-6-6 2-10 4-16 6zM192 102c4-8 12-8 14-4-6 2-8 4-14 4z" fill="#6aa84a"/>
    <g mask="url(#rimMask)" opacity=".8" filter="url(#soft)"><path d="M150 72C116 72 102 102 102 146C102 190 110 222 126 240C136 250 144 254 150 254C156 254 164 250 174 240C190 222 198 190 198 146C198 102 184 72 150 72Z" fill="none" stroke="#d0e880" stroke-width="5"/><path d="M40 380C44 322 84 292 150 288C216 292 256 322 260 380Z" fill="none" stroke="#d0e880" stroke-width="5"/></g><rect width="300" height="380" fill="url(#vig)"/><rect width="300" height="380" filter="url(#grain)" opacity=".14"/></svg>
