<svg xmlns="http://www.w3.org/2000/svg" width="200" height="200" viewBox="46 40 208 208"><defs>
    <radialGradient id="bg" cx="0.5" cy="0.36" r="0.8"><stop offset="0" stop-color="#5a3a2a"/><stop offset="0.6" stop-color="#22140c"/><stop offset="1" stop-color="#080404"/></radialGradient>
    <linearGradient id="rimFade" x1="0" y1="0" x2="1" y2="0"><stop offset="0" stop-color="#000"/><stop offset="0.52" stop-color="#000"/><stop offset="1" stop-color="#fff"/></linearGradient>
    <mask id="rimMask" maskUnits="userSpaceOnUse" x="0" y="0" width="300" height="380"><rect width="300" height="380" fill="url(#rimFade)"/></mask>
    <radialGradient id="vig" cx="0.5" cy="0.42" r="0.78"><stop offset="0.5" stop-color="#000" stop-opacity="0"/><stop offset="1" stop-color="#000" stop-opacity="0.75"/></radialGradient>
    <radialGradient id="glow" cx="0.5" cy="0.5" r="0.5"><stop offset="0" stop-color="#ffa070" stop-opacity="0.4"/><stop offset="1" stop-color="#ffa070" stop-opacity="0"/></radialGradient>
    <filter id="grain" x="0" y="0" width="100%" height="100%"><feTurbulence type="fractalNoise" baseFrequency="0.9" numOctaves="2" stitchTiles="stitch"/><feColorMatrix values="0 0 0 0 0  0 0 0 0 0  0 0 0 0 0  1.6 0 0 0 -0.62"/></filter>
    <filter id="soft" x="-50%" y="-50%" width="200%" height="200%"><feGaussianBlur stdDeviation="1.6"/></filter>
    <linearGradient id="brass" x1="0" y1="0" x2="0" y2="1"><stop offset="0" stop-color="#fff1b8"/><stop offset="0.45" stop-color="#d8a93c"/><stop offset="1" stop-color="#6e4a12"/></linearGradient>
    <linearGradient id="steel" x1="0" y1="0" x2="0" y2="1"><stop offset="0" stop-color="#eef2f6"/><stop offset="0.5" stop-color="#9aa3ae"/><stop offset="1" stop-color="#4a5058"/></linearGradient>
    <linearGradient id="skin" x1="0" y1="0" x2="1" y2="0.2"><stop offset="0" stop-color="#eebd96"/><stop offset="0.5" stop-color="#d8a078"/><stop offset="1" stop-color="#945e3e"/></linearGradient><linearGradient id="cloth" x1="0" y1="0" x2="1" y2="1"><stop offset="0" stop-color="#4a4440"/><stop offset="0.6" stop-color="#2a2622"/><stop offset="1" stop-color="#0e0c0a"/></linearGradient><linearGradient id="cloth2" x1="0" y1="0" x2="1" y2="1"><stop offset="0" stop-color="#3a3430"/><stop offset="1" stop-color="#1a1614"/></linearGradient><linearGradient id="shirt" x1="0" y1="0" x2="0" y2="1"><stop offset="0" stop-color="#e8dcc4"/><stop offset="1" stop-color="#a8987a"/></linearGradient><linearGradient id="hat" x1="0" y1="0" x2="0" y2="1"><stop offset="0" stop-color="#2a2420"/><stop offset="1" stop-color="#0a0806"/></linearGradient><linearGradient id="band" x1="0" y1="0" x2="0" y2="1"><stop offset="0" stop-color="#2a1a10"/><stop offset="1" stop-color="#0e0806"/></linearGradient><linearGradient id="hair" x1="0" y1="0" x2="0" y2="1"><stop offset="0" stop-color="#5a3a22"/><stop offset="1" stop-color="#241408"/></linearGradient></defs><rect width="300" height="380" fill="url(#bg)"/>
    <ellipse cx="150" cy="170" rx="140" ry="165" fill="url(#glow)"/>
    <path d="M150 150L470 150L469.5 167.9ZM150 150L462 221.2L457.5 238.6ZM150 150L438.3 288.8L430.1 304.8ZM150 150L400.2 349.5L388.6 363.2ZM150 150L349.5 400.2L335.2 411ZM150 150L288.8 438.3L272.5 445.6ZM150 150L221.2 462L203.6 465.5ZM150 150L150 470L132.1 469.5ZM150 150L78.8 462L61.4 457.5ZM150 150L11.2 438.3L-4.8 430.1ZM150 150L-49.5 400.2L-63.2 388.6ZM150 150L-100.2 349.5L-111 335.2ZM150 150L-138.3 288.8L-145.6 272.5ZM150 150L-162 221.2L-165.5 203.6ZM150 150L-170 150L-169.5 132.1ZM150 150L-162 78.8L-157.5 61.4ZM150 150L-138.3 11.2L-130.1 -4.8ZM150 150L-100.2 -49.5L-88.6 -63.2ZM150 150L-49.5 -100.2L-35.2 -111ZM150 150L11.2 -138.3L27.5 -145.6ZM150 150L78.8 -162L96.4 -165.5ZM150 150L150 -170L167.9 -169.5ZM150 150L221.2 -162L238.6 -157.5ZM150 150L288.8 -138.3L304.8 -130.1ZM150 150L349.5 -100.2L363.2 -88.6ZM150 150L400.2 -49.5L411 -35.2ZM150 150L438.3 11.2L445.6 27.5ZM150 150L462 78.8L465.5 96.4Z" fill="#ffa070" opacity=".07"/>
    
    <path d="M40 380C44 322 84 292 150 288C216 292 256 322 260 380Z" fill="url(#cloth)"/>
        <path d="M140 300L150 380L160 300Z" fill="url(#shirt)"/>
        <path d="M120 288L150 380L94 380L80 326Z" fill="#000" opacity=".22"/><path d="M180 288L150 380L206 380L220 326Z" fill="#000" opacity=".22"/>
        <path d="M108 262L150 312L192 262L212 300L150 348L88 300Z" fill="url(#cloth2)"/>
        <path d="M108 262L150 312L192 262" stroke="#fff" stroke-opacity=".12" stroke-width="2" fill="none"/>
    <path d="M126 230L174 230L178 278L122 278Z" fill="url(#skin)"/>
    <path d="M126 236C138 254 162 254 174 236L176 262C162 274 138 274 124 262Z" fill="#000" opacity=".28"/>
    
    
    
    
    <path d="M97 150C86 146 84 170 92 180C96 184 100 182 100 176Z" fill="url(#skin)"/><path d="M203 150C214 146 216 170 208 180C204 184 200 182 200 176Z" fill="#945e3e"/>
    <path d="M150 72C116 72 102 102 102 146C102 190 110 222 126 240C136 250 144 254 150 254C156 254 164 250 174 240C190 222 198 190 198 146C198 102 184 72 150 72Z" fill="url(#skin)"/>
    <path d="M188 118C202 140 206 174 198 204C192 226 180 240 166 248C184 224 194 196 194 168C194 146 192 130 188 118Z" fill="#000" opacity=".2"/>
    
    
    
    <clipPath id="eyeL"><path d="M113 153C121.4 144 134.6 144 143 153C134.6 159.3 121.4 159.3 113 153Z"/></clipPath>
    <path d="M113 153C121.4 144 134.6 144 143 153C134.6 159.3 121.4 159.3 113 153Z" fill="#efe6dc"/>
    <g clip-path="url(#eyeL)">
      <circle cx="129.2" cy="153.6" r="6.3" fill="#4a3a2a"/>
      <circle cx="129.2" cy="153.6" r="4.5" fill="none" stroke="#000" stroke-opacity=".22" stroke-width="1.9"/>
      <circle cx="129.2" cy="153.6" r="2.6" fill="#0a0707"/>
      <circle cx="127" cy="151.1" r="1.3" fill="#fff" fill-opacity=".92"/>
      <path d="M111 138L145 138L145 153C134.6 147.2 121.4 147.2 111 153Z" fill="#d8a078"/>
      <path d="M112 153C121.4 147.2 134.6 147.2 144 153" fill="none" stroke="#000" stroke-opacity=".28" stroke-width="5"/>
    </g>
    <path d="M112 153C121.4 147.2 134.6 147.2 144 153" fill="none" stroke="#1a1012" stroke-width="2.6" stroke-linecap="round"/>
    <path d="M115 149.3C122 139.7 134 139.7 142 148.6" fill="none" stroke="#7a4a3a" stroke-opacity=".5" stroke-width="1.3"/>
    <path d="M116 154.5C122 160.3 134 160.3 140 154.5" fill="none" stroke="#8e5e4c" stroke-opacity=".55" stroke-width="1.1"/>
    
    
    
    <clipPath id="eyeR"><path d="M157 153C165.4 144 178.6 144 187 153C178.6 159.3 165.4 159.3 157 153Z"/></clipPath>
    <path d="M157 153C165.4 144 178.6 144 187 153C178.6 159.3 165.4 159.3 157 153Z" fill="#efe6dc"/>
    <g clip-path="url(#eyeR)">
      <circle cx="170.8" cy="153.6" r="6.3" fill="#4a3a2a"/>
      <circle cx="170.8" cy="153.6" r="4.5" fill="none" stroke="#000" stroke-opacity=".22" stroke-width="1.9"/>
      <circle cx="170.8" cy="153.6" r="2.6" fill="#0a0707"/>
      <circle cx="168.6" cy="151.1" r="1.3" fill="#fff" fill-opacity=".92"/>
      <path d="M155 138L189 138L189 153C178.6 147.2 165.4 147.2 155 153Z" fill="#945e3e"/>
      <path d="M156 153C165.4 147.2 178.6 147.2 188 153" fill="none" stroke="#000" stroke-opacity=".28" stroke-width="5"/>
    </g>
    <path d="M156 153C165.4 147.2 178.6 147.2 188 153" fill="none" stroke="#1a1012" stroke-width="2.6" stroke-linecap="round"/>
    <path d="M159 149.3C166 139.7 178 139.7 186 148.6" fill="none" stroke="#7a4a3a" stroke-opacity=".5" stroke-width="1.3"/>
    <path d="M160 154.5C166 160.3 178 160.3 184 154.5" fill="none" stroke="#8e5e4c" stroke-opacity=".55" stroke-width="1.1"/>
    
    
    <path d="M143 139Q126.5 129 110 137" fill="none" stroke="#241408" stroke-width="4.5" stroke-linecap="round"/>
   <path d="M143 139.675Q126.5 129.9 110 137" fill="none" stroke="#000" stroke-opacity=".18" stroke-width="2.25" stroke-linecap="round"/><path d="M157 139Q173.5 129 190 137" fill="none" stroke="#241408" stroke-width="4.5" stroke-linecap="round"/>
   <path d="M157 139.675Q173.5 129.9 190 137" fill="none" stroke="#000" stroke-opacity=".18" stroke-width="2.25" stroke-linecap="round"/>
    
    <path d="M153 161C156 179.5 159 188 161 195" fill="none" stroke="#945e3e" stroke-width="2.6" stroke-opacity=".75" stroke-linecap="round"/>
    <path d="M141 196C137 202 145 204 148 200" fill="none" stroke="#945e3e" stroke-width="2.2" stroke-linecap="round"/>
    <path d="M159 196C163 202 155 204 152 200" fill="none" stroke="#945e3e" stroke-width="2.2" stroke-linecap="round"/>
    <path d="M138 199C144 207 156 207 162 199" fill="none" stroke="#000" stroke-opacity=".16" stroke-width="4"/>
    <ellipse cx="149" cy="192" rx="4" ry="3" fill="#fff" opacity=".22"/>
    
    <path d="M136 222C145.33333333333334 226 154.66666666666666 226 164 222" fill="none" stroke="#5a2a22" stroke-width="2.7" stroke-linecap="round"/>
    <path d="M141.6 227C147.2 232 152.8 232 158.4 227" fill="none" stroke="#945e3e" stroke-opacity=".55" stroke-width="2.4" stroke-linecap="round"/>
    <path d="M143 235C147.76 237 152.24 237 157 235" fill="none" stroke="#000" stroke-opacity=".15" stroke-width="3"/>
    <path d="M150 204C140 200 124 200 114 208C104 216 92 216 84 208C86 220 98 226 112 224C126 222 140 216 150 212C160 216 174 222 188 224C202 226 214 220 216 208C208 216 196 216 186 208C176 200 160 200 150 204Z" fill="url(#hair)"/>
    
    <path d="M100 132C100 146 100 160 104 172L110 166C108 152 108 140 108 130ZM200 132C200 146 200 160 196 172L190 166C192 152 192 140 192 130Z" fill="url(#hair)"/>
    <g transform="rotate(-3 150 110)">
        <path d="M96 122C92 84 114 54 150 54C186 54 208 84 204 122Z" fill="url(#hat)"/>
        <path d="M150 58C140 72 138 92 142 110M126 70C122 86 124 100 128 112M174 70C178 86 176 100 172 112" stroke="#000" stroke-opacity=".3" stroke-width="3" fill="none"/>
        <path d="M96 106C120 114 180 114 204 106L204 122C180 130 120 130 96 122Z" fill="url(#band)"/>
        <path d="M34 124C52 106 90 124 150 124C210 124 248 106 266 124C250 144 210 146 150 146C90 146 50 144 34 124Z" fill="url(#hat)"/>
        <path d="M44 126C70 136 230 136 256 126" stroke="#fff" stroke-opacity=".18" stroke-width="2" fill="none"/>
        <path d="M100 146C120 156 180 156 200 146" stroke="#000" stroke-opacity=".3" stroke-width="10" fill="none"/></g>
    
    <g mask="url(#rimMask)" opacity=".8" filter="url(#soft)"><path d="M150 72C116 72 102 102 102 146C102 190 110 222 126 240C136 250 144 254 150 254C156 254 164 250 174 240C190 222 198 190 198 146C198 102 184 72 150 72Z" fill="none" stroke="#ffa070" stroke-width="5"/><path d="M40 380C44 322 84 292 150 288C216 292 256 322 260 380Z" fill="none" stroke="#ffa070" stroke-width="5"/></g><rect width="300" height="380" fill="url(#vig)"/><rect width="300" height="380" filter="url(#grain)" opacity=".14"/></svg>
