<svg xmlns="http://www.w3.org/2000/svg" viewBox="0 0 64 64" width="64" height="64"><defs><radialGradient id="gm8g" cx="0.35" cy="0.3" r="0.8"><stop offset="0" stop-color="#ff8a90"/><stop offset="0.55" stop-color="#d82a3a"/><stop offset="1" stop-color="#6a0a14"/></radialGradient><linearGradient id="gm8l" x1="0" y1="0" x2="1" y2="1"><stop offset="0" stop-color="#ffffff" stop-opacity="0.9"/><stop offset="1" stop-color="#ffffff" stop-opacity="0"/></linearGradient></defs><ellipse cx="33.9" cy="55.5" rx="21.6" ry="4.8" fill="#000" opacity=".35"/><path d="M54.8 31L54.7 37.1L53.5 43.4L50.1 49.1L44.4 52.5L38.1 53.7L32 53.8L25.9 53.7L19.6 52.5L13.9 49.1L10.5 43.4L9.3 37.1L9.2 31L9.3 24.9L10.5 18.6L13.9 12.9L19.6 9.5L25.9 8.3L32 8.2L38.1 8.3L44.4 9.5L50.1 12.9L53.5 18.6L54.7 24.9Z" fill="url(#gm8g)" stroke="#6a0a14" stroke-width="1"/><path d="M54.8 31L54.7 37.1L40.5 39.5Z" fill="#9a1824" opacity=".9"/><path d="M54.7 37.1L53.5 43.4L40.5 39.5Z" fill="#8a131f" opacity=".9"/><path d="M53.5 43.4L50.1 49.1L40.5 39.5Z" fill="#7f101b" opacity=".9"/><path d="M50.1 49.1L44.4 52.5L23.5 39.5Z" fill="#7b0f1a" opacity=".9"/><path d="M44.4 52.5L38.1 53.7L23.5 39.5Z" fill="#7c0f1a" opacity=".9"/><path d="M38.1 53.7L32 53.8L23.5 39.5Z" fill="#85121d" opacity=".9"/><path d="M32 53.8L25.9 53.7L23.5 39.5Z" fill="#921622" opacity=".9"/><path d="M25.9 53.7L19.6 52.5L23.5 39.5Z" fill="#a51b28" opacity=".9"/><path d="M19.6 52.5L13.9 49.1L23.5 39.5Z" fill="#bb2130" opacity=".9"/><path d="M13.9 49.1L10.5 43.4L23.5 22.5Z" fill="#d32838" opacity=".9"/><path d="M10.5 43.4L9.3 37.1L23.5 22.5Z" fill="#df3b49" opacity=".9"/><path d="M9.3 37.1L9.2 31L23.5 22.5Z" fill="#e74f5b" opacity=".9"/><path d="M9.2 31L9.3 24.9L23.5 22.5Z" fill="#ee606b" opacity=".9"/><path d="M9.3 24.9L10.5 18.6L23.5 22.5Z" fill="#f46e77" opacity=".9"/><path d="M10.5 18.6L13.9 12.9L23.5 22.5Z" fill="#f7787f" opacity=".9"/><path d="M13.9 12.9L19.6 9.5L40.5 22.5Z" fill="#f97b83" opacity=".9"/><path d="M19.6 9.5L25.9 8.3L40.5 22.5Z" fill="#f87a82" opacity=".9"/><path d="M25.9 8.3L32 8.2L40.5 22.5Z" fill="#f6737b" opacity=".9"/><path d="M32 8.2L38.1 8.3L40.5 22.5Z" fill="#f16771" opacity=".9"/><path d="M38.1 8.3L44.4 9.5L40.5 22.5Z" fill="#ea5762" opacity=".9"/><path d="M44.4 9.5L50.1 12.9L40.5 22.5Z" fill="#e24451" opacity=".9"/><path d="M50.1 12.9L53.5 18.6L40.5 39.5Z" fill="#da2f3e" opacity=".9"/><path d="M53.5 18.6L54.7 24.9L40.5 39.5Z" fill="#c52433" opacity=".9"/><path d="M54.7 24.9L54.8 31L40.5 39.5Z" fill="#ae1e2b" opacity=".9"/><path d="M40.5 39.5L23.5 39.5L23.5 22.5L40.5 22.5Z" fill="#e8505c"/><path d="M18.8 26.2Q21.2 16.6 30.8 16.1" stroke="#fff" stroke-width="2.4" stroke-linecap="round" fill="none" opacity=".75"/><path d="M42.8 11.8L44 19L51.2 20.2L44 21.4L42.8 28.6L41.6 21.4L34.4 20.2L41.6 19Z" fill="#fff" opacity=".95"/></svg>
