<svg xmlns="http://www.w3.org/2000/svg" width="260" height="130" viewBox="0 0 260 130"><defs><linearGradient id="rbg" x1="0" y1="0" x2="0" y2="1"><stop offset="0" stop-color="#3a2414"/><stop offset="1" stop-color="#1e120a"/></linearGradient><linearGradient id="gold" x1="0" y1="0" x2="0" y2="1"><stop offset="0" stop-color="#fff1b8"/><stop offset="0.45" stop-color="#d8a93c"/><stop offset="1" stop-color="#6e4a12"/></linearGradient><filter id="ds" x="-40%" y="-40%" width="180%" height="180%"><feDropShadow dx="0" dy="2" stdDeviation="2" flood-color="#000" flood-opacity="0.6"/></filter></defs><rect width="260" height="130" rx="12" fill="url(#rbg)"/><rect x="1" y="1" width="258" height="128" rx="11" fill="none" stroke="#8a5a28" stroke-width="1.5"/>
    <g transform="rotate(-6 45 62)" filter="url(#ds)"><rect x="20" y="26" width="50" height="72" rx="4" fill="#f0dcae" stroke="#b3261e" stroke-width="3"/><text x="45" y="66" text-anchor="middle" font-family="'Malgun Gothic', 'Apple SD Gothic Neo', 'Noto Sans KR', sans-serif" font-size="11" font-weight="700" fill="#2b1a0f">뱅!</text></g>
    <path d="M78 60H118" stroke="#f2d68a" stroke-width="3" stroke-dasharray="6 4"/><path d="M0 0l-8-4.5v9z" fill="#f2d68a" transform="translate(126 60) rotate(0)"/>
    <circle cx="146" cy="60" r="13" fill="#1a120a" stroke="#c8a070" stroke-width="2.5"/><text x="146" y="64" text-anchor="middle" font-family="'Malgun Gothic', 'Apple SD Gothic Neo', 'Noto Sans KR', sans-serif" font-size="10" font-weight="700" fill="#e8d8b0">상대</text>
    <g transform="rotate(6 201 58)" filter="url(#ds)"><rect x="176" y="22" width="50" height="72" rx="4" fill="#f0dcae" stroke="#2a6a4a" stroke-width="3"/><text x="201" y="62" text-anchor="middle" font-family="'Malgun Gothic', 'Apple SD Gothic Neo', 'Noto Sans KR', sans-serif" font-size="11" font-weight="700" fill="#2b1a0f">빗나감!</text></g>
    <text x="130" y="112" text-anchor="middle" font-family="'Malgun Gothic', 'Apple SD Gothic Neo', 'Noto Sans KR', sans-serif" font-size="10.5" font-weight="700" fill="#e8d8b0">사거리 안이면 쏠 수 있어요 · 빗나감!이 없으면 체력 -1</text></svg>
