<svg xmlns="http://www.w3.org/2000/svg" viewBox="0 0 240 336" width="240" height="336">
  <defs>
    <linearGradient id="skyDay" x1="0" y1="0" x2="0" y2="1"><stop offset="0" stop-color="#6a9ad0"/><stop offset="0.6" stop-color="#b8d4ec"/><stop offset="1" stop-color="#e8e0c8"/></linearGradient>
    <linearGradient id="skyWarm" x1="0" y1="0" x2="0" y2="1"><stop offset="0" stop-color="#e89a50"/><stop offset="0.6" stop-color="#f8c880"/><stop offset="1" stop-color="#fce8c0"/></linearGradient>
    <linearGradient id="skyDusk" x1="0" y1="0" x2="0" y2="1"><stop offset="0" stop-color="#3a3a6a"/><stop offset="0.5" stop-color="#c86a5a"/><stop offset="1" stop-color="#f8b870"/></linearGradient>
    <linearGradient id="skyNight" x1="0" y1="0" x2="0" y2="1"><stop offset="0" stop-color="#0a1030"/><stop offset="1" stop-color="#2a3a6a"/></linearGradient>
    <linearGradient id="skyStorm" x1="0" y1="0" x2="0" y2="1"><stop offset="0" stop-color="#1a2030"/><stop offset="1" stop-color="#4a5a6a"/></linearGradient>
    <linearGradient id="band" x1="0" y1="0" x2="0" y2="1"><stop offset="0" stop-color="#ffffff" stop-opacity="0.92"/><stop offset="1" stop-color="#f4ecd8" stop-opacity="0.82"/></linearGradient>
    <radialGradient id="vig" cx="0.5" cy="0.5" r="0.75"><stop offset="0.6" stop-color="#000" stop-opacity="0"/><stop offset="1" stop-color="#000" stop-opacity="0.45"/></radialGradient>
    <filter id="soft" x="-50%" y="-50%" width="200%" height="200%"><feGaussianBlur stdDeviation="10"/></filter>
    <pattern id="hp" width="6" height="6" patternUnits="userSpaceOnUse" patternTransform="rotate(-35)"><path d="M0 3H6" stroke="#1a0e06" stroke-width=".9" opacity=".55"/></pattern><svg id="hatchTile" width="10" height="10" viewBox="0 0 10 10"><path d="M-2 12L12 -2M-7 7L7 -7M3 17L17 3" stroke="#1a0e06" stroke-width=".8" opacity=".6"/></svg><filter id="paint" x="-3%" y="-3%" width="106%" height="106%" color-interpolation-filters="sRGB">
  <feTurbulence type="fractalNoise" baseFrequency="0.02 0.06" numOctaves="3" seed="11" result="n"/>
  <feDisplacementMap in="SourceGraphic" in2="n" scale="4" xChannelSelector="R" yChannelSelector="G" result="wob"/>
  <feGaussianBlur in="wob" stdDeviation=".6" result="soft"/>
  <feColorMatrix in="soft" type="matrix" values=".33 .33 .33 0 0  .33 .33 .33 0 0  .33 .33 .33 0 0  0 0 0 1 0" result="lum"/>
  <feConvolveMatrix in="lum" order="3" kernelMatrix="-1 -1 -1 -1 8 -1 -1 -1 -1" divisor="1" preserveAlpha="true" result="edges"/>
  <feColorMatrix in="edges" type="matrix" values="0 0 0 0 .09  0 0 0 0 .05  0 0 0 0 .03  3.2 3.2 3.2 0 -.12" result="inkLines"/>
  <feTurbulence type="fractalNoise" baseFrequency=".9" numOctaves="1" seed="13" result="brk"/>
  <feComposite in="inkLines" in2="brk" operator="arithmetic" k1="1.6" k2=".2" k3="0" k4="0" result="inkBroken"/>
  <feImage href="#hatchTile" x="0" y="0" width="10" height="10" result="hTile"/>
  <feTile in="hTile" result="hatch"/>
  <feColorMatrix in="lum" type="matrix" values="0 0 0 0 0  0 0 0 0 0  0 0 0 0 0  -2.6 0 0 0 1.05" result="darkMask"/>
  <feComposite in="hatch" in2="darkMask" operator="in" result="hatchDark"/>
  <feTurbulence type="fractalNoise" baseFrequency=".045" numOctaves="4" seed="18" result="bleed"/>
  <feColorMatrix in="bleed" type="matrix" values="0 0 0 0 1  0 0 0 0 .96  0 0 0 0 .88  0 0 0 -.9 .38" result="bleedMask"/>
  <feComposite in="bleedMask" in2="wob" operator="in" result="bleedIn"/>
  <feMerge><feMergeNode in="wob"/><feMergeNode in="bleedIn"/><feMergeNode in="hatchDark"/><feMergeNode in="inkBroken"/></feMerge>
</filter><filter id="grain" x="0" y="0" width="100%" height="100%"><feTurbulence type="fractalNoise" baseFrequency=".8" numOctaves="2" stitchTiles="stitch"/><feColorMatrix values="0 0 0 0 0  0 0 0 0 0  0 0 0 0 0  1.5 0 0 0 -.6"/></filter>
    <clipPath id="clip"><rect x="6" y="6" width="228" height="324" rx="10"/></clipPath>
  </defs>
  <rect width="240" height="336" rx="14" fill="#f4ecd8"/>
  <rect x="3" y="3" width="234" height="330" rx="12" fill="none" stroke="#c8a040" stroke-width="1.4" opacity=".8"/>
  <g clip-path="url(#clip)">
    <g filter="url(#paint)"><rect width="240" height="336" fill="url(#skyWarm)"/><path d="M0 90L60 80L70 140L140 130L150 190L240 180V336H0Z" fill="#b8987a"/><path d="M0 90L60 80L70 140L0 150Z" fill="#8a6a50"/><path d="M70 140L140 130L150 190L80 196Z" fill="#9a7a60"/><path d="M150 190L240 180V336H150Z" fill="#a88a6a"/><g transform="translate(107.8 170.4) rotate(9.1)"><path d="M0 -10.1L3 -2L0 0L-3 -2Z" fill="#d82a3a" stroke="#6a0a14" stroke-width=".8"/><path d="M0 -10.1L3 -2L0 -4.1Z" fill="#ff8a90" opacity=".85"/></g><g transform="translate(136.1 183.1) rotate(18.6)"><path d="M0 -11.2L3.4 -2.2L0 0L-3.4 -2.2Z" fill="#d82a3a" stroke="#6a0a14" stroke-width=".8"/><path d="M0 -11.2L3.4 -2.2L0 -4.5Z" fill="#ff8a90" opacity=".85"/></g><g transform="translate(106.6 174) rotate(-19.5)"><path d="M0 -8.7L2.6 -1.7L0 0L-2.6 -1.7Z" fill="#d82a3a" stroke="#6a0a14" stroke-width=".8"/><path d="M0 -8.7L2.6 -1.7L0 -3.5Z" fill="#ff8a90" opacity=".85"/></g><g transform="translate(104.1 183.8) rotate(-11.9)"><path d="M0 -12.1L3.6 -2.4L0 0L-3.6 -2.4Z" fill="#d82a3a" stroke="#6a0a14" stroke-width=".8"/><path d="M0 -12.1L3.6 -2.4L0 -4.8Z" fill="#ff8a90" opacity=".85"/></g><g transform="translate(131.8 189.8) rotate(-8.3)"><path d="M0 -7.6L2.3 -1.5L0 0L-2.3 -1.5Z" fill="#d82a3a" stroke="#6a0a14" stroke-width=".8"/><path d="M0 -7.6L2.3 -1.5L0 -3Z" fill="#ff8a90" opacity=".85"/></g><g transform="translate(101.9 161.8) rotate(-1.2)"><path d="M0 -9.4L2.8 -1.9L0 0L-2.8 -1.9Z" fill="#d82a3a" stroke="#6a0a14" stroke-width=".8"/><path d="M0 -9.4L2.8 -1.9L0 -3.8Z" fill="#ff8a90" opacity=".85"/></g><g transform="translate(131 154) rotate(-13.2)"><path d="M0 -9.4L2.8 -1.9L0 0L-2.8 -1.9Z" fill="#d82a3a" stroke="#6a0a14" stroke-width=".8"/><path d="M0 -9.4L2.8 -1.9L0 -3.8Z" fill="#ff8a90" opacity=".85"/></g><g transform="translate(98.4 162.9) rotate(-23.1)"><path d="M0 -13.9L4.2 -2.8L0 0L-4.2 -2.8Z" fill="#d82a3a" stroke="#6a0a14" stroke-width=".8"/><path d="M0 -13.9L4.2 -2.8L0 -5.6Z" fill="#ff8a90" opacity=".85"/></g><g transform="translate(88.4 170.5) rotate(6.3)"><path d="M0 -6.1L1.8 -1.2L0 0L-1.8 -1.2Z" fill="#d82a3a" stroke="#6a0a14" stroke-width=".8"/><path d="M0 -6.1L1.8 -1.2L0 -2.4Z" fill="#ff8a90" opacity=".85"/></g><g transform="translate(122.8 158.7) rotate(-1.5)"><path d="M0 -6.4L1.9 -1.3L0 0L-1.9 -1.3Z" fill="#d82a3a" stroke="#6a0a14" stroke-width=".8"/><path d="M0 -6.4L1.9 -1.3L0 -2.6Z" fill="#ff8a90" opacity=".85"/></g><g transform="translate(167.1 223) rotate(-11)"><path d="M0 -6.7L2 -1.3L0 0L-2 -1.3Z" fill="#d82a3a" stroke="#6a0a14" stroke-width=".8"/><path d="M0 -6.7L2 -1.3L0 -2.7Z" fill="#ff8a90" opacity=".85"/></g><g transform="translate(163.6 228.5) rotate(12.1)"><path d="M0 -8.5L2.6 -1.7L0 0L-2.6 -1.7Z" fill="#d82a3a" stroke="#6a0a14" stroke-width=".8"/><path d="M0 -8.5L2.6 -1.7L0 -3.4Z" fill="#ff8a90" opacity=".85"/></g><g transform="translate(209.2 223.6) rotate(23.2)"><path d="M0 -11.5L3.5 -2.3L0 0L-3.5 -2.3Z" fill="#d82a3a" stroke="#6a0a14" stroke-width=".8"/><path d="M0 -11.5L3.5 -2.3L0 -4.6Z" fill="#ff8a90" opacity=".85"/></g><g transform="translate(183.2 249.9) rotate(19.4)"><path d="M0 -13L3.9 -2.6L0 0L-3.9 -2.6Z" fill="#d82a3a" stroke="#6a0a14" stroke-width=".8"/><path d="M0 -13L3.9 -2.6L0 -5.2Z" fill="#ff8a90" opacity=".85"/></g><g transform="translate(185.9 246.3) rotate(-1.6)"><path d="M0 -6.3L1.9 -1.3L0 0L-1.9 -1.3Z" fill="#d82a3a" stroke="#6a0a14" stroke-width=".8"/><path d="M0 -6.3L1.9 -1.3L0 -2.5Z" fill="#ff8a90" opacity=".85"/></g><g transform="translate(175.5 254.5) rotate(4.9)"><path d="M0 -6.4L1.9 -1.3L0 0L-1.9 -1.3Z" fill="#d82a3a" stroke="#6a0a14" stroke-width=".8"/><path d="M0 -6.4L1.9 -1.3L0 -2.6Z" fill="#ff8a90" opacity=".85"/></g><g transform="translate(213.1 212.9) rotate(-1.4)"><path d="M0 -14L4.2 -2.8L0 0L-4.2 -2.8Z" fill="#d82a3a" stroke="#6a0a14" stroke-width=".8"/><path d="M0 -14L4.2 -2.8L0 -5.6Z" fill="#ff8a90" opacity=".85"/></g><g transform="translate(220.7 227.2) rotate(-11.2)"><path d="M0 -14.8L4.5 -3L0 0L-4.5 -3Z" fill="#d82a3a" stroke="#6a0a14" stroke-width=".8"/><path d="M0 -14.8L4.5 -3L0 -5.9Z" fill="#ff8a90" opacity=".85"/></g><g transform="translate(206.4 203.7) rotate(24.2)"><path d="M0 -6.6L2 -1.3L0 0L-2 -1.3Z" fill="#d82a3a" stroke="#6a0a14" stroke-width=".8"/><path d="M0 -6.6L2 -1.3L0 -2.6Z" fill="#ff8a90" opacity=".85"/></g><g transform="translate(160.5 240.5) rotate(-10.2)"><path d="M0 -11.4L3.4 -2.3L0 0L-3.4 -2.3Z" fill="#d82a3a" stroke="#6a0a14" stroke-width=".8"/><path d="M0 -11.4L3.4 -2.3L0 -4.5Z" fill="#ff8a90" opacity=".85"/></g><path d="M40 160L60 300M58 160L78 300" stroke="#5a3a1a" stroke-width="4"/><path d="M42 175H60" stroke="#5a3a1a" stroke-width="3"/><path d="M44.8 193H62.8" stroke="#5a3a1a" stroke-width="3"/><path d="M47.6 211H65.6" stroke="#5a3a1a" stroke-width="3"/><path d="M50.4 229H68.4" stroke="#5a3a1a" stroke-width="3"/><path d="M53.2 247H71.2" stroke="#5a3a1a" stroke-width="3"/><path d="M56 265H74" stroke="#5a3a1a" stroke-width="3"/><path d="M58.8 283H76.8" stroke="#5a3a1a" stroke-width="3"/><path d="M150 300L200 250" stroke="#6a4a2a" stroke-width="5"/><path d="M186 244Q204 238 214 256L200 250Z" fill="#8a8a90" stroke="#3a3a40" stroke-width="2"/><ellipse cx="223.2" cy="331.1" rx="13.1" ry="7.8" fill="#b1987f"/><ellipse cx="90" cy="314.1" rx="4.5" ry="2.7" fill="#af957c"/><ellipse cx="15.7" cy="320.7" rx="4.4" ry="2.6" fill="#997959"/><ellipse cx="209.2" cy="298.8" rx="4.4" ry="2.6" fill="#a98d72"/><ellipse cx="159.3" cy="318.4" rx="11.4" ry="6.8" fill="#856a4e"/><ellipse cx="96.3" cy="322.2" rx="13.1" ry="7.8" fill="#b7a18a"/><ellipse cx="201.4" cy="306.9" rx="6.2" ry="3.7" fill="#a4876a"/><ellipse cx="89.9" cy="320.8" rx="5.2" ry="3.1" fill="#785f46"/><ellipse cx="173.2" cy="333.9" rx="10.8" ry="6.5" fill="#6c563f"/><ellipse cx="108.9" cy="308.8" rx="12.8" ry="7.7" fill="#947556"/><ellipse cx="1.2" cy="292" rx="13.5" ry="8.1" fill="#a5886b"/><ellipse cx="125.4" cy="320.4" rx="13.7" ry="8.2" fill="#745c44"/><ellipse cx="118.4" cy="321.6" rx="11.6" ry="7" fill="#9d7e5f"/><ellipse cx="212.7" cy="315.4" rx="6.1" ry="3.7" fill="#7b6148"/><ellipse cx="92.2" cy="313.4" rx="7.1" ry="4.3" fill="#866a4e"/><ellipse cx="31" cy="320.7" rx="7.6" ry="4.6" fill="#a18365"/><ellipse cx="158.1" cy="334.2" rx="10.4" ry="6.2" fill="#765e45"/><ellipse cx="174.7" cy="296.8" rx="8.7" ry="5.2" fill="#84684d"/><ellipse cx="197.2" cy="312.8" rx="12.1" ry="7.3" fill="#a5896d"/><ellipse cx="118.1" cy="317.6" rx="4.7" ry="2.8" fill="#7b6148"/><ellipse cx="171.2" cy="315.2" rx="4.2" ry="2.5" fill="#ac9278"/><ellipse cx="5.5" cy="334.8" rx="4.8" ry="2.9" fill="#9f8162"/><path d="M120 50c9 -16.2 28.8 -18 36 -5.4c10.8 -14.4 32.4 -9 34.2 5.4c12.6 0 19.8 10.8 9 12.6H120Z" fill="#fff4e0" opacity="0.7"/><path d="M205.1 51.6q2.6 -2.6 5.2 0q2.6 -2.6 5.2 0" stroke="#2a1a14" stroke-width="1.1" fill="none"/><path d="M180.1 45.4q2.4 -2.4 4.9 0q2.4 -2.4 4.9 0" stroke="#2a1a14" stroke-width="1.1" fill="none"/><path d="M170.1 45.8q1.9 -1.9 3.9 0q1.9 -1.9 3.9 0" stroke="#2a1a14" stroke-width="1.1" fill="none"/><g><path d="M47.5 216.4L46.6 230M52.5 216.4L53.4 230" stroke="#2a1a0c" stroke-width="2.7" stroke-linecap="round"/><path d="M44 216.4C43.2 209.6 44 202.8 46.6 201.1L53.4 201.1C56 202.8 56.8 209.6 56 216.4Z" fill="#5a3a24" stroke="#1a0e06" stroke-width="0.8"/><path d="M44.9 213H55.1" stroke="#1a0e06" stroke-width="1"/><path d="M45.8 202.8L41.5 192.6M54.3 202.8L58.5 192.6" stroke="#5a3a24" stroke-width="2.5" stroke-linecap="round"/><circle cx="50" cy="197.7" r="3.6" fill="#d8a878" stroke="#1a0e06" stroke-width="0.7"/><path d="M45.8 196Q50 190.9 54.3 196L56 196.8H45.8Z" fill="#6a2a1a"/></g><g><path d="M187 284L186 300M193 284L194 300" stroke="#2a1a0c" stroke-width="3.2" stroke-linecap="round"/><path d="M183 284C182 276 183 268 186 266L194 266C197 268 198 276 197 284Z" fill="#4a2a1a" stroke="#1a0e06" stroke-width="0.9"/><path d="M184 280H196" stroke="#1a0e06" stroke-width="1.2"/><path d="M185 269L178 276M195 269L202 262" stroke="#4a2a1a" stroke-width="3" stroke-linecap="round"/><circle cx="190" cy="262" r="4.2" fill="#d8a878" stroke="#1a0e06" stroke-width="0.8"/><path d="M185 260Q190 254 195 260L197 261H185Z" fill="#6a2a1a"/><path d="M202 262L192 282" stroke="#5a3a1a" stroke-width="1.6"/><path d="M196 258Q202 256 208 264" stroke="#8a8a90" stroke-width="2" fill="none"/></g></g>
    <rect width="240" height="336" fill="url(#vig)"/>
    <rect width="240" height="336" filter="url(#grain)" opacity=".08"/>
    <rect x="0" y="0" width="240" height="66" fill="url(#band)"/>
    <path d="M0 66H240" stroke="#6a0a14" stroke-width="2" opacity=".5"/>
  </g>
  <text x="20" y="54" font-family="Georgia, 'Times New Roman', serif" font-weight="700" font-size="50" fill="#ffffff" stroke="#2a1a0a" stroke-width="2.4" paint-order="stroke">1</text>
  <g transform="translate(202 34)"><defs><radialGradient id="gm43g" cx="0.35" cy="0.3" r="0.8"><stop offset="0" stop-color="#ff8a90"/><stop offset="0.55" stop-color="#d82a3a"/><stop offset="1" stop-color="#6a0a14"/></radialGradient><linearGradient id="gm43l" x1="0" y1="0" x2="1" y2="1"><stop offset="0" stop-color="#ffffff" stop-opacity="0.9"/><stop offset="1" stop-color="#ffffff" stop-opacity="0"/></linearGradient></defs><ellipse cx="1.8" cy="22.4" rx="19.8" ry="4.4" fill="#000" opacity=".35"/><path d="M20.9 0L20.8 5.6L19.7 11.4L16.6 16.6L11.4 19.7L5.6 20.8L0 20.9L-5.6 20.8L-11.4 19.7L-16.6 16.6L-19.7 11.4L-20.8 5.6L-20.9 0L-20.8 -5.6L-19.7 -11.4L-16.6 -16.6L-11.4 -19.7L-5.6 -20.8L0 -20.9L5.6 -20.8L11.4 -19.7L16.6 -16.6L19.7 -11.4L20.8 -5.6Z" fill="url(#gm43g)" stroke="#6a0a14" stroke-width="0.9"/><path d="M20.9 0L20.8 5.6L7.8 7.8Z" fill="#9a1824" opacity=".9"/><path d="M20.8 5.6L19.7 11.4L7.8 7.8Z" fill="#8a131f" opacity=".9"/><path d="M19.7 11.4L16.6 16.6L7.8 7.8Z" fill="#7f101b" opacity=".9"/><path d="M16.6 16.6L11.4 19.7L-7.8 7.8Z" fill="#7b0f1a" opacity=".9"/><path d="M11.4 19.7L5.6 20.8L-7.8 7.8Z" fill="#7c0f1a" opacity=".9"/><path d="M5.6 20.8L0 20.9L-7.8 7.8Z" fill="#85121d" opacity=".9"/><path d="M0 20.9L-5.6 20.8L-7.8 7.8Z" fill="#921622" opacity=".9"/><path d="M-5.6 20.8L-11.4 19.7L-7.8 7.8Z" fill="#a51b28" opacity=".9"/><path d="M-11.4 19.7L-16.6 16.6L-7.8 7.8Z" fill="#bb2130" opacity=".9"/><path d="M-16.6 16.6L-19.7 11.4L-7.8 -7.8Z" fill="#d32838" opacity=".9"/><path d="M-19.7 11.4L-20.8 5.6L-7.8 -7.8Z" fill="#df3b49" opacity=".9"/><path d="M-20.8 5.6L-20.9 0L-7.8 -7.8Z" fill="#e74f5b" opacity=".9"/><path d="M-20.9 0L-20.8 -5.6L-7.8 -7.8Z" fill="#ee606b" opacity=".9"/><path d="M-20.8 -5.6L-19.7 -11.4L-7.8 -7.8Z" fill="#f46e77" opacity=".9"/><path d="M-19.7 -11.4L-16.6 -16.6L-7.8 -7.8Z" fill="#f7787f" opacity=".9"/><path d="M-16.6 -16.6L-11.4 -19.7L7.8 -7.8Z" fill="#f97b83" opacity=".9"/><path d="M-11.4 -19.7L-5.6 -20.8L7.8 -7.8Z" fill="#f87a82" opacity=".9"/><path d="M-5.6 -20.8L0 -20.9L7.8 -7.8Z" fill="#f6737b" opacity=".9"/><path d="M0 -20.9L5.6 -20.8L7.8 -7.8Z" fill="#f16771" opacity=".9"/><path d="M5.6 -20.8L11.4 -19.7L7.8 -7.8Z" fill="#ea5762" opacity=".9"/><path d="M11.4 -19.7L16.6 -16.6L7.8 -7.8Z" fill="#e24451" opacity=".9"/><path d="M16.6 -16.6L19.7 -11.4L7.8 7.8Z" fill="#da2f3e" opacity=".9"/><path d="M19.7 -11.4L20.8 -5.6L7.8 7.8Z" fill="#c52433" opacity=".9"/><path d="M20.8 -5.6L20.9 0L7.8 7.8Z" fill="#ae1e2b" opacity=".9"/><path d="M7.8 7.8L-7.8 7.8L-7.8 -7.8L7.8 -7.8Z" fill="#e8505c"/><path d="M-12.1 -4.4Q-9.9 -13.2 -1.1 -13.6" stroke="#fff" stroke-width="2.2" stroke-linecap="round" fill="none" opacity=".75"/><path d="M9.9 -17.6L11 -11L17.6 -9.9L11 -8.8L9.9 -2.2L8.8 -8.8L2.2 -9.9L8.8 -11Z" fill="#fff" opacity=".95"/></g>
  <g transform="translate(26 306)"><circle r="17" fill="#000" opacity=".35" transform="translate(1.5 2)"/><circle r="16" fill="#2a6ad8" stroke="#f4ecd8" stroke-width="2.5"/>
      <circle r="12" fill="none" stroke="#8ac0ff" stroke-width="1" opacity=".7"/>
      <text y="7" text-anchor="middle" font-family="Georgia, 'Times New Roman', serif" font-weight="700" font-size="20" fill="#ffffff" stroke="#000" stroke-width=".6">4</text></g>
  <circle cx="120" cy="326" r="3.2" fill="#f4ecd8" stroke="#3a2a14" stroke-width="1"/>
  <rect x="6" y="6" width="228" height="324" rx="10" fill="none" stroke="#2a1a0a" stroke-width="1.5" opacity=".5"/>
</svg>
