<svg xmlns="http://www.w3.org/2000/svg" viewBox="0 0 240 336" width="240" height="336">
  <defs>
    <linearGradient id="skyDay" x1="0" y1="0" x2="0" y2="1"><stop offset="0" stop-color="#6a9ad0"/><stop offset="0.6" stop-color="#b8d4ec"/><stop offset="1" stop-color="#e8e0c8"/></linearGradient>
    <linearGradient id="skyWarm" x1="0" y1="0" x2="0" y2="1"><stop offset="0" stop-color="#e89a50"/><stop offset="0.6" stop-color="#f8c880"/><stop offset="1" stop-color="#fce8c0"/></linearGradient>
    <linearGradient id="skyDusk" x1="0" y1="0" x2="0" y2="1"><stop offset="0" stop-color="#3a3a6a"/><stop offset="0.5" stop-color="#c86a5a"/><stop offset="1" stop-color="#f8b870"/></linearGradient>
    <linearGradient id="skyNight" x1="0" y1="0" x2="0" y2="1"><stop offset="0" stop-color="#0a1030"/><stop offset="1" stop-color="#2a3a6a"/></linearGradient>
    <linearGradient id="skyStorm" x1="0" y1="0" x2="0" y2="1"><stop offset="0" stop-color="#1a2030"/><stop offset="1" stop-color="#4a5a6a"/></linearGradient>
    <linearGradient id="band" x1="0" y1="0" x2="0" y2="1"><stop offset="0" stop-color="#ffffff" stop-opacity="0.92"/><stop offset="1" stop-color="#f4ecd8" stop-opacity="0.82"/></linearGradient>
    <radialGradient id="vig" cx="0.5" cy="0.5" r="0.75"><stop offset="0.6" stop-color="#000" stop-opacity="0"/><stop offset="1" stop-color="#000" stop-opacity="0.45"/></radialGradient>
    <filter id="soft" x="-50%" y="-50%" width="200%" height="200%"><feGaussianBlur stdDeviation="10"/></filter>
    <pattern id="hp" width="6" height="6" patternUnits="userSpaceOnUse" patternTransform="rotate(-35)"><path d="M0 3H6" stroke="#1a0e06" stroke-width=".9" opacity=".55"/></pattern><svg id="hatchTile" width="10" height="10" viewBox="0 0 10 10"><path d="M-2 12L12 -2M-7 7L7 -7M3 17L17 3" stroke="#1a0e06" stroke-width=".8" opacity=".6"/></svg><filter id="paint" x="-3%" y="-3%" width="106%" height="106%" color-interpolation-filters="sRGB">
  <feTurbulence type="fractalNoise" baseFrequency="0.02 0.06" numOctaves="3" seed="73" result="n"/>
  <feDisplacementMap in="SourceGraphic" in2="n" scale="4" xChannelSelector="R" yChannelSelector="G" result="wob"/>
  <feGaussianBlur in="wob" stdDeviation=".6" result="soft"/>
  <feColorMatrix in="soft" type="matrix" values=".33 .33 .33 0 0  .33 .33 .33 0 0  .33 .33 .33 0 0  0 0 0 1 0" result="lum"/>
  <feConvolveMatrix in="lum" order="3" kernelMatrix="-1 -1 -1 -1 8 -1 -1 -1 -1" divisor="1" preserveAlpha="true" result="edges"/>
  <feColorMatrix in="edges" type="matrix" values="0 0 0 0 .09  0 0 0 0 .05  0 0 0 0 .03  3.2 3.2 3.2 0 -.12" result="inkLines"/>
  <feTurbulence type="fractalNoise" baseFrequency=".9" numOctaves="1" seed="75" result="brk"/>
  <feComposite in="inkLines" in2="brk" operator="arithmetic" k1="1.6" k2=".2" k3="0" k4="0" result="inkBroken"/>
  <feImage href="#hatchTile" x="0" y="0" width="10" height="10" result="hTile"/>
  <feTile in="hTile" result="hatch"/>
  <feColorMatrix in="lum" type="matrix" values="0 0 0 0 0  0 0 0 0 0  0 0 0 0 0  -2.6 0 0 0 1.05" result="darkMask"/>
  <feComposite in="hatch" in2="darkMask" operator="in" result="hatchDark"/>
  <feTurbulence type="fractalNoise" baseFrequency=".045" numOctaves="4" seed="80" result="bleed"/>
  <feColorMatrix in="bleed" type="matrix" values="0 0 0 0 1  0 0 0 0 .96  0 0 0 0 .88  0 0 0 -.9 .38" result="bleedMask"/>
  <feComposite in="bleedMask" in2="wob" operator="in" result="bleedIn"/>
  <feMerge><feMergeNode in="wob"/><feMergeNode in="bleedIn"/><feMergeNode in="hatchDark"/><feMergeNode in="inkBroken"/></feMerge>
</filter><filter id="grain" x="0" y="0" width="100%" height="100%"><feTurbulence type="fractalNoise" baseFrequency=".8" numOctaves="2" stitchTiles="stitch"/><feColorMatrix values="0 0 0 0 0  0 0 0 0 0  0 0 0 0 0  1.5 0 0 0 -.6"/></filter>
    <clipPath id="clip"><rect x="6" y="6" width="228" height="324" rx="10"/></clipPath>
  </defs>
  <rect width="240" height="336" rx="14" fill="#f4ecd8"/>
  <rect x="3" y="3" width="234" height="330" rx="12" fill="none" stroke="#c8a040" stroke-width="1.4" opacity=".8"/>
  <g clip-path="url(#clip)">
    <g filter="url(#paint)"><rect width="240" height="336" fill="url(#skyWarm)"/><path d="M0 90L60 80L70 140L140 130L150 190L240 180V336H0Z" fill="#b8987a"/><path d="M0 90L60 80L70 140L0 150Z" fill="#8a6a50"/><path d="M70 140L140 130L150 190L80 196Z" fill="#9a7a60"/><path d="M150 190L240 180V336H150Z" fill="#a88a6a"/><g transform="translate(107.9 179.7) rotate(-8.2)"><path d="M0 -12.6L3.8 -2.5L0 0L-3.8 -2.5Z" fill="#2a6ad8" stroke="#12306a" stroke-width=".8"/><path d="M0 -12.6L3.8 -2.5L0 -5Z" fill="#8ac0ff" opacity=".85"/></g><g transform="translate(108.9 157.7) rotate(-24.6)"><path d="M0 -5.5L1.7 -1.1L0 0L-1.7 -1.1Z" fill="#2a6ad8" stroke="#12306a" stroke-width=".8"/><path d="M0 -5.5L1.7 -1.1L0 -2.2Z" fill="#8ac0ff" opacity=".85"/></g><g transform="translate(117.1 171) rotate(-4.2)"><path d="M0 -5.6L1.7 -1.1L0 0L-1.7 -1.1Z" fill="#2a6ad8" stroke="#12306a" stroke-width=".8"/><path d="M0 -5.6L1.7 -1.1L0 -2.3Z" fill="#8ac0ff" opacity=".85"/></g><g transform="translate(120.9 152.4) rotate(1.2)"><path d="M0 -11.9L3.6 -2.4L0 0L-3.6 -2.4Z" fill="#2a6ad8" stroke="#12306a" stroke-width=".8"/><path d="M0 -11.9L3.6 -2.4L0 -4.7Z" fill="#8ac0ff" opacity=".85"/></g><g transform="translate(96.8 178.4) rotate(2.5)"><path d="M0 -13.5L4.1 -2.7L0 0L-4.1 -2.7Z" fill="#2a6ad8" stroke="#12306a" stroke-width=".8"/><path d="M0 -13.5L4.1 -2.7L0 -5.4Z" fill="#8ac0ff" opacity=".85"/></g><g transform="translate(91.4 156.6) rotate(-24.7)"><path d="M0 -7.4L2.2 -1.5L0 0L-2.2 -1.5Z" fill="#2a6ad8" stroke="#12306a" stroke-width=".8"/><path d="M0 -7.4L2.2 -1.5L0 -2.9Z" fill="#8ac0ff" opacity=".85"/></g><g transform="translate(112.6 154.1) rotate(-22.5)"><path d="M0 -5.4L1.6 -1.1L0 0L-1.6 -1.1Z" fill="#2a6ad8" stroke="#12306a" stroke-width=".8"/><path d="M0 -5.4L1.6 -1.1L0 -2.2Z" fill="#8ac0ff" opacity=".85"/></g><g transform="translate(139.6 171.4) rotate(21.2)"><path d="M0 -10.8L3.3 -2.2L0 0L-3.3 -2.2Z" fill="#2a6ad8" stroke="#12306a" stroke-width=".8"/><path d="M0 -10.8L3.3 -2.2L0 -4.3Z" fill="#8ac0ff" opacity=".85"/></g><g transform="translate(112.9 187.1) rotate(-17.4)"><path d="M0 -10.2L3.1 -2L0 0L-3.1 -2Z" fill="#2a6ad8" stroke="#12306a" stroke-width=".8"/><path d="M0 -10.2L3.1 -2L0 -4.1Z" fill="#8ac0ff" opacity=".85"/></g><g transform="translate(112.9 172.6) rotate(-2.6)"><path d="M0 -7.9L2.4 -1.6L0 0L-2.4 -1.6Z" fill="#2a6ad8" stroke="#12306a" stroke-width=".8"/><path d="M0 -7.9L2.4 -1.6L0 -3.1Z" fill="#8ac0ff" opacity=".85"/></g><g transform="translate(165.3 245.6) rotate(-7.9)"><path d="M0 -8.7L2.6 -1.7L0 0L-2.6 -1.7Z" fill="#2a6ad8" stroke="#12306a" stroke-width=".8"/><path d="M0 -8.7L2.6 -1.7L0 -3.5Z" fill="#8ac0ff" opacity=".85"/></g><g transform="translate(205 214.1) rotate(-24)"><path d="M0 -15.9L4.8 -3.2L0 0L-4.8 -3.2Z" fill="#2a6ad8" stroke="#12306a" stroke-width=".8"/><path d="M0 -15.9L4.8 -3.2L0 -6.4Z" fill="#8ac0ff" opacity=".85"/></g><g transform="translate(164.5 258.8) rotate(-5.4)"><path d="M0 -14.4L4.3 -2.9L0 0L-4.3 -2.9Z" fill="#2a6ad8" stroke="#12306a" stroke-width=".8"/><path d="M0 -14.4L4.3 -2.9L0 -5.7Z" fill="#8ac0ff" opacity=".85"/></g><g transform="translate(191.1 223.9) rotate(-6.4)"><path d="M0 -7.1L2.1 -1.4L0 0L-2.1 -1.4Z" fill="#2a6ad8" stroke="#12306a" stroke-width=".8"/><path d="M0 -7.1L2.1 -1.4L0 -2.9Z" fill="#8ac0ff" opacity=".85"/></g><g transform="translate(203.2 215.3) rotate(-20)"><path d="M0 -11.9L3.6 -2.4L0 0L-3.6 -2.4Z" fill="#2a6ad8" stroke="#12306a" stroke-width=".8"/><path d="M0 -11.9L3.6 -2.4L0 -4.8Z" fill="#8ac0ff" opacity=".85"/></g><g transform="translate(184.8 249.8) rotate(-11.6)"><path d="M0 -6.5L2 -1.3L0 0L-2 -1.3Z" fill="#2a6ad8" stroke="#12306a" stroke-width=".8"/><path d="M0 -6.5L2 -1.3L0 -2.6Z" fill="#8ac0ff" opacity=".85"/></g><g transform="translate(196.2 209.3) rotate(20.5)"><path d="M0 -11.6L3.5 -2.3L0 0L-3.5 -2.3Z" fill="#2a6ad8" stroke="#12306a" stroke-width=".8"/><path d="M0 -11.6L3.5 -2.3L0 -4.6Z" fill="#8ac0ff" opacity=".85"/></g><g transform="translate(160.7 218.7) rotate(-24.9)"><path d="M0 -10.5L3.1 -2.1L0 0L-3.1 -2.1Z" fill="#2a6ad8" stroke="#12306a" stroke-width=".8"/><path d="M0 -10.5L3.1 -2.1L0 -4.2Z" fill="#8ac0ff" opacity=".85"/></g><g transform="translate(190.2 202.8) rotate(-16.1)"><path d="M0 -9.2L2.8 -1.8L0 0L-2.8 -1.8Z" fill="#2a6ad8" stroke="#12306a" stroke-width=".8"/><path d="M0 -9.2L2.8 -1.8L0 -3.7Z" fill="#8ac0ff" opacity=".85"/></g><g transform="translate(196.2 220) rotate(21.3)"><path d="M0 -9.6L2.9 -1.9L0 0L-2.9 -1.9Z" fill="#2a6ad8" stroke="#12306a" stroke-width=".8"/><path d="M0 -9.6L2.9 -1.9L0 -3.8Z" fill="#8ac0ff" opacity=".85"/></g><path d="M40 160L60 300M58 160L78 300" stroke="#5a3a1a" stroke-width="4"/><path d="M42 175H60" stroke="#5a3a1a" stroke-width="3"/><path d="M44.8 193H62.8" stroke="#5a3a1a" stroke-width="3"/><path d="M47.6 211H65.6" stroke="#5a3a1a" stroke-width="3"/><path d="M50.4 229H68.4" stroke="#5a3a1a" stroke-width="3"/><path d="M53.2 247H71.2" stroke="#5a3a1a" stroke-width="3"/><path d="M56 265H74" stroke="#5a3a1a" stroke-width="3"/><path d="M58.8 283H76.8" stroke="#5a3a1a" stroke-width="3"/><path d="M150 300L200 250" stroke="#6a4a2a" stroke-width="5"/><path d="M186 244Q204 238 214 256L200 250Z" fill="#8a8a90" stroke="#3a3a40" stroke-width="2"/><ellipse cx="220.1" cy="315.4" rx="7.8" ry="4.7" fill="#a98e73"/><ellipse cx="221.4" cy="335.6" rx="9.2" ry="5.5" fill="#a4876a"/><ellipse cx="180.6" cy="297.1" rx="10.8" ry="6.5" fill="#b8a28b"/><ellipse cx="131.5" cy="313.7" rx="7" ry="4.2" fill="#9e7f60"/><ellipse cx="151.9" cy="296.2" rx="8.5" ry="5.1" fill="#b1987f"/><ellipse cx="135.6" cy="304.9" rx="13.8" ry="8.3" fill="#8b6e51"/><ellipse cx="165.1" cy="334.1" rx="12" ry="7.2" fill="#a78b6f"/><ellipse cx="164.2" cy="314.3" rx="13.1" ry="7.9" fill="#b49c84"/><ellipse cx="44.1" cy="312.6" rx="13.6" ry="8.1" fill="#a98e72"/><ellipse cx="112.1" cy="319.1" rx="5.9" ry="3.5" fill="#7b6248"/><ellipse cx="118.8" cy="321.5" rx="13.3" ry="8" fill="#8f7254"/><ellipse cx="139.5" cy="296.3" rx="10.9" ry="6.5" fill="#84694d"/><ellipse cx="89.6" cy="314.8" rx="8.8" ry="5.3" fill="#81664b"/><ellipse cx="216.4" cy="324.1" rx="11.4" ry="6.9" fill="#9d7e5f"/><ellipse cx="129.4" cy="331" rx="4.3" ry="2.6" fill="#9e7f60"/><ellipse cx="156.3" cy="310.8" rx="13.3" ry="8" fill="#b69e87"/><ellipse cx="169.9" cy="302.4" rx="12.4" ry="7.5" fill="#876b4f"/><ellipse cx="140.1" cy="327.4" rx="10.8" ry="6.5" fill="#ad947a"/><ellipse cx="5.3" cy="329.6" rx="7.8" ry="4.7" fill="#b8a18b"/><ellipse cx="112.5" cy="296.2" rx="10.3" ry="6.2" fill="#99795a"/><ellipse cx="52.5" cy="318.2" rx="6.6" ry="3.9" fill="#917254"/><ellipse cx="9.8" cy="298.1" rx="10.1" ry="6.1" fill="#8f7254"/><path d="M120 50c9 -16.2 28.8 -18 36 -5.4c10.8 -14.4 32.4 -9 34.2 5.4c12.6 0 19.8 10.8 9 12.6H120Z" fill="#fff4e0" opacity="0.7"/><path d="M191.7 53.8q2.3 -2.3 4.7 0q2.3 -2.3 4.7 0" stroke="#2a1a14" stroke-width="1.1" fill="none"/><path d="M182.8 57.2q2.4 -2.4 4.8 0q2.4 -2.4 4.8 0" stroke="#2a1a14" stroke-width="1.1" fill="none"/><path d="M208.7 39.6q1.7 -1.7 3.4 0q1.7 -1.7 3.4 0" stroke="#2a1a14" stroke-width="1.1" fill="none"/><g><path d="M47.5 216.4L46.6 230M52.5 216.4L53.4 230" stroke="#2a1a0c" stroke-width="2.7" stroke-linecap="round"/><path d="M44 216.4C43.2 209.6 44 202.8 46.6 201.1L53.4 201.1C56 202.8 56.8 209.6 56 216.4Z" fill="#5a3a24" stroke="#1a0e06" stroke-width="0.8"/><path d="M44.9 213H55.1" stroke="#1a0e06" stroke-width="1"/><path d="M45.8 202.8L41.5 192.6M54.3 202.8L58.5 192.6" stroke="#5a3a24" stroke-width="2.5" stroke-linecap="round"/><circle cx="50" cy="197.7" r="3.6" fill="#d8a878" stroke="#1a0e06" stroke-width="0.7"/><path d="M45.8 196Q50 190.9 54.3 196L56 196.8H45.8Z" fill="#6a2a1a"/></g><g><path d="M187 284L186 300M193 284L194 300" stroke="#2a1a0c" stroke-width="3.2" stroke-linecap="round"/><path d="M183 284C182 276 183 268 186 266L194 266C197 268 198 276 197 284Z" fill="#4a2a1a" stroke="#1a0e06" stroke-width="0.9"/><path d="M184 280H196" stroke="#1a0e06" stroke-width="1.2"/><path d="M185 269L178 276M195 269L202 262" stroke="#4a2a1a" stroke-width="3" stroke-linecap="round"/><circle cx="190" cy="262" r="4.2" fill="#d8a878" stroke="#1a0e06" stroke-width="0.8"/><path d="M185 260Q190 254 195 260L197 261H185Z" fill="#6a2a1a"/><path d="M202 262L192 282" stroke="#5a3a1a" stroke-width="1.6"/><path d="M196 258Q202 256 208 264" stroke="#8a8a90" stroke-width="2" fill="none"/></g></g>
    <rect width="240" height="336" fill="url(#vig)"/>
    <rect width="240" height="336" filter="url(#grain)" opacity=".08"/>
    <rect x="0" y="0" width="240" height="66" fill="url(#band)"/>
    <path d="M0 66H240" stroke="#12306a" stroke-width="2" opacity=".5"/>
  </g>
  <text x="20" y="54" font-family="Georgia, 'Times New Roman', serif" font-weight="700" font-size="50" fill="#ffffff" stroke="#2a1a0a" stroke-width="2.4" paint-order="stroke">1</text>
  <g transform="translate(202 34)"><defs><radialGradient id="gm27g" cx="0.35" cy="0.3" r="0.8"><stop offset="0" stop-color="#8ac0ff"/><stop offset="0.55" stop-color="#2a6ad8"/><stop offset="1" stop-color="#12306a"/></radialGradient><linearGradient id="gm27l" x1="0" y1="0" x2="1" y2="1"><stop offset="0" stop-color="#ffffff" stop-opacity="0.9"/><stop offset="1" stop-color="#ffffff" stop-opacity="0"/></linearGradient></defs><ellipse cx="1.8" cy="22.4" rx="19.8" ry="4.4" fill="#000" opacity=".35"/><path d="M25.3 0L24.1 5.8L20.5 11L14.9 15.1L7.8 17.8L0 18.7L-7.8 17.8L-14.9 15.1L-20.5 11L-24.1 5.8L-25.3 0L-24.1 -5.8L-20.5 -11L-14.9 -15.1L-7.8 -17.8L0 -18.7L7.8 -17.8L14.9 -15.1L20.5 -11L24.1 -5.8Z" fill="url(#gm27g)" stroke="#12306a" stroke-width="0.9"/><path d="M25.3 0L24.1 5.8L13.2 0Z" fill="#1d4b9d" opacity=".9"/><path d="M24.1 5.8L20.5 11L13.2 0Z" fill="#19428c" opacity=".9"/><path d="M20.5 11L14.9 15.1L10.7 5.4Z" fill="#173d82" opacity=".9"/><path d="M14.9 15.1L7.8 17.8L10.7 5.4Z" fill="#173c80" opacity=".9"/><path d="M7.8 17.8L0 18.7L4.1 8.8Z" fill="#184087" opacity=".9"/><path d="M0 18.7L-7.8 17.8L4.1 8.8Z" fill="#1c4796" opacity=".9"/><path d="M-7.8 17.8L-14.9 15.1L-4.1 8.8Z" fill="#2053ac" opacity=".9"/><path d="M-14.9 15.1L-20.5 11L-4.1 8.8Z" fill="#2660c5" opacity=".9"/><path d="M-20.5 11L-24.1 5.8L-10.7 5.4Z" fill="#3271db" opacity=".9"/><path d="M-24.1 5.8L-25.3 0L-10.7 5.4Z" fill="#4986e5" opacity=".9"/><path d="M-25.3 0L-24.1 -5.8L-13.2 0Z" fill="#5d98ed" opacity=".9"/><path d="M-24.1 -5.8L-20.5 -11L-13.2 0Z" fill="#6ca5f3" opacity=".9"/><path d="M-20.5 -11L-14.9 -15.1L-10.7 -5.4Z" fill="#75adf6" opacity=".9"/><path d="M-14.9 -15.1L-7.8 -17.8L-10.7 -5.4Z" fill="#76aef7" opacity=".9"/><path d="M-7.8 -17.8L0 -18.7L-4.1 -8.8Z" fill="#70a9f5" opacity=".9"/><path d="M0 -18.7L7.8 -17.8L-4.1 -8.8Z" fill="#639def" opacity=".9"/><path d="M7.8 -17.8L14.9 -15.1L4.1 -8.8Z" fill="#518de8" opacity=".9"/><path d="M14.9 -15.1L20.5 -11L4.1 -8.8Z" fill="#3a79df" opacity=".9"/><path d="M20.5 -11L24.1 -5.8L10.7 -5.4Z" fill="#2865cf" opacity=".9"/><path d="M24.1 -5.8L25.3 0L10.7 -5.4Z" fill="#2257b5" opacity=".9"/><path d="M13.2 0L10.7 5.4L4.1 8.8L-4.1 8.8L-10.7 5.4L-13.2 0L-10.7 -5.4L-4.1 -8.8L4.1 -8.8L10.7 -5.4Z" fill="#4c88e6"/><path d="M-12.1 -4.4Q-9.9 -13.2 -1.1 -13.6" stroke="#fff" stroke-width="2.2" stroke-linecap="round" fill="none" opacity=".75"/><path d="M9.9 -17.6L11 -11L17.6 -9.9L11 -8.8L9.9 -2.2L8.8 -8.8L2.2 -9.9L8.8 -11Z" fill="#fff" opacity=".95"/></g>
  <g transform="translate(26 306)"><circle r="17" fill="#000" opacity=".35" transform="translate(1.5 2)"/><circle r="16" fill="#3a3230" stroke="#f4ecd8" stroke-width="2.5"/>
      <circle r="12" fill="none" stroke="#8a7a74" stroke-width="1" opacity=".7"/>
      <text y="7" text-anchor="middle" font-family="Georgia, 'Times New Roman', serif" font-weight="700" font-size="20" fill="#ffffff" stroke="#000" stroke-width=".6">4</text></g>
  <circle cx="120" cy="326" r="3.2" fill="#f4ecd8" stroke="#3a2a14" stroke-width="1"/>
  <rect x="6" y="6" width="228" height="324" rx="10" fill="none" stroke="#2a1a0a" stroke-width="1.5" opacity=".5"/>
</svg>
